<svg width="32" height="32" viewBox="0 0 32 32" fill="none" xmlns="http://www.w3.org/2000/svg">
<path fill-rule="evenodd" clip-rule="evenodd" d="M15.8667 17.2503C20.5142 17.2503 24.2817 13.4871 24.2817 8.84492C24.2817 4.20277 20.5142 0.43956 15.8667 0.43956C11.2191 0.43956 7.45157 4.20277 7.45157 8.84492C7.45157 13.4871 11.2191 17.2503 15.8667 17.2503ZM10.2828 18.0358C5.97603 17.8337 2.97725 21.5732 1.75618 23.9284C4.84958 28.5316 10.105 31.5604 16.0679 31.5604C22.0086 31.5604 27.2471 28.5541 30.345 23.9797C28.0051 18.7956 23.5328 17.8458 21.5291 18.0358C17.2508 21.4608 12.2489 19.4629 10.2828 18.0358Z" fill="#E06A52"/>
</svg>
