<svg width="461" height="58" viewBox="0 0 461 58" fill="none" xmlns="http://www.w3.org/2000/svg">
<path d="M0.119318 0.636362V45H10.1705V15.973H10.517L21.348 44.3068H28.1065L38.9375 16.1463H39.2841V45H49.3352V0.636362H36.3381L24.9872 29.0568H24.4673L13.1165 0.636362H0.119318ZM73.4287 45H82.96V22.4716C82.96 15.0199 77.2412 11.294 69.5296 11.294C61.4713 11.294 56.0992 15.3665 55.0594 21.5185L64.4173 22.3849C64.7639 20.2188 66.8435 18.8324 69.0963 18.8324C71.5225 18.8324 72.9088 20.4787 72.9088 22.2116V22.9048C72.9088 24.4645 70.3094 24.7244 68.1432 24.8977C58.6986 25.6776 54.5395 29.75 54.5395 35.642C54.5395 42.054 59.3918 45.6065 65.1105 45.6065C69.2696 45.6065 71.7824 43.7003 72.9955 41.6207H73.4287V45ZM72.9088 34.3423C72.9088 36.6818 70.3094 38.4148 67.71 38.4148C65.5438 38.4148 64.1574 37.2017 64.1574 35.3821C64.1574 32.956 65.4571 31.5696 69.4429 31.1364C70.656 30.9631 72.3889 30.6165 72.9088 30.0966V34.3423ZM118.366 45V0.636362H108.402V15.2798H108.055C106.929 12.767 104.07 11.294 100.604 11.294C93.9317 11.294 87.7797 16.7528 87.7797 28.3636C87.7797 39.7145 93.5851 45.5199 100.604 45.5199C104.07 45.5199 106.929 44.1335 108.055 41.6207H108.489V45H118.366ZM97.1377 28.3636C97.1377 22.5582 99.3039 19.179 103.55 19.179C108.142 19.179 109.528 23.2514 109.528 28.3636C109.528 33.3892 108.229 37.6349 103.55 37.6349C99.3039 37.6349 97.1377 34.169 97.1377 28.3636ZM146.716 12.3338C145.677 11.7273 143.77 11.294 142.037 11.294C139.091 11.294 135.799 12.5071 134.846 15.973H134.326V11.7273H124.621V45H134.586V26.1108C134.586 22.8182 137.185 20.1321 140.478 20.1321C141.778 20.1321 143.251 20.5653 143.684 20.8253L146.716 12.3338ZM167.788 45H177.319V22.4716C177.319 15.0199 171.601 11.294 163.889 11.294C155.831 11.294 150.459 15.3665 149.419 21.5185L158.777 22.3849C159.123 20.2188 161.203 18.8324 163.456 18.8324C165.882 18.8324 167.268 20.4787 167.268 22.2116V22.9048C167.268 24.4645 164.669 24.7244 162.503 24.8977C153.058 25.6776 148.899 29.75 148.899 35.642C148.899 42.054 153.751 45.6065 159.47 45.6065C163.629 45.6065 166.142 43.7003 167.355 41.6207H167.788V45ZM167.268 34.3423C167.268 36.6818 164.669 38.4148 162.069 38.4148C159.903 38.4148 158.517 37.2017 158.517 35.3821C158.517 32.956 159.816 31.5696 163.802 31.1364C165.015 30.9631 166.748 30.6165 167.268 30.0966V34.3423ZM210.982 21.5185C210.202 14.9332 205.87 11.294 197.292 11.294C188.28 11.294 182.388 15.1932 182.388 22.0384C182.388 27.9304 186.807 30.4432 191.833 31.5696L197.812 32.8693C199.371 33.2159 201.537 33.4759 201.537 35.8153C201.537 37.375 199.285 38.5014 196.772 38.5014C194.259 38.5014 191.66 37.2884 191.053 34.2557L181.435 34.7756C182.562 42.054 187.674 45.6065 196.165 45.6065C204.483 45.6065 211.762 42.2273 211.762 34.5156C211.762 28.4503 207.343 26.3707 202.664 25.4176L195.905 24.0312C194.086 23.6847 192.266 23.0781 192.266 21.3452C192.266 19.5256 194.519 18.4858 196.772 18.4858C199.111 18.4858 201.537 19.5256 201.884 22.0384L210.982 21.5185Z" fill="#E06A52"/>
<path d="M218.672 0.636362V45H223.698V11.7273H224.131L237.561 44.6534H242.413L255.844 11.7273H256.277V45H261.303V0.636362H255.324L240.334 36.8551H239.814L224.651 0.636362H218.672ZM285.304 45.6932C292.063 45.6932 297.002 42.3139 298.561 37.2884L293.622 35.902C292.323 39.3679 289.377 41.1009 285.304 41.1009C279.282 41.1009 275.491 37.2884 274.971 30.0966H299.081V27.9304C299.081 15.5398 291.716 11.294 284.784 11.294C275.773 11.294 269.794 18.3991 269.794 28.6236C269.794 38.848 275.686 45.6932 285.304 45.6932ZM284.784 15.8864C290.33 15.8864 293.882 20.0455 293.882 25.6776H275.08C275.903 19.4389 279.672 15.8864 284.784 15.8864ZM320.927 45.6932C327.686 45.6932 332.625 42.3139 334.184 37.2884L329.245 35.902C327.946 39.3679 325 41.1009 320.927 41.1009C314.905 41.1009 311.114 37.2884 310.594 30.0966H334.704V27.9304C334.704 15.5398 327.339 11.294 320.407 11.294C311.396 11.294 305.417 18.3991 305.417 28.6236C305.417 38.848 311.309 45.6932 320.927 45.6932ZM320.407 15.8864C325.953 15.8864 329.505 20.0455 329.505 25.6776H310.703C311.526 19.4389 315.295 15.8864 320.407 15.8864ZM356.55 11.7273H349.445V4.62216H344.333V11.7273H339.307V16.4929H344.333V36.8551C344.333 42.6605 349.012 45.4332 353.344 45.4332C355.25 45.4332 356.464 45.0866 357.157 44.8267L356.117 40.2344C355.684 40.321 354.991 40.4943 353.864 40.4943C351.611 40.4943 349.445 39.8011 349.445 35.4688V16.4929H356.55V11.7273ZM385.252 31.8295C385.252 38.0682 380.487 40.4943 376.674 40.4943C372.428 40.4943 369.396 37.7216 369.396 32.8693V11.7273H364.283V32.8693C364.283 41.6207 370.176 45.4332 375.028 45.4332C380.053 45.4332 383.259 42.8338 384.906 40.321H385.252V45H390.364V11.7273H385.252V31.8295ZM399.728 57.4773H404.84V39.8878H405.273C406.4 41.7074 408.566 45.6932 414.978 45.6932C423.296 45.6932 429.101 39.0213 429.101 28.4503C429.101 17.9659 423.296 11.294 414.891 11.294C408.393 11.294 406.4 15.2798 405.273 17.0128H404.667V11.7273H399.728V57.4773ZM423.989 28.3636C423.989 35.4688 420.697 41.1009 414.285 41.1009C408.133 41.1009 404.753 35.902 404.753 28.3636C404.753 20.9119 408.046 15.8864 414.285 15.8864C420.783 15.8864 423.989 21.3452 423.989 28.3636ZM459.861 19.179C458.128 14.3267 454.403 11.294 448.251 11.294C441.232 11.294 436.033 15.2798 436.033 20.9119C436.033 24.9844 438.719 28.6236 444.785 30.1832L450.33 31.5696C453.623 32.3494 455.096 33.8224 455.096 35.9886C455.096 38.7614 452.323 41.2741 447.557 41.2741C442.618 41.2741 440.279 38.5881 439.066 35.5554L434.387 37.2884C436.033 41.4474 439.672 45.6932 447.644 45.6932C455.876 45.6932 460.295 40.9276 460.295 35.8153C460.295 32.0028 457.782 28.5369 451.716 27.0639L446.778 25.8509C442.965 24.8977 441.145 22.9048 441.145 20.652C441.145 17.7926 444.178 15.6264 448.251 15.6264C453.363 15.6264 454.662 19.0057 455.269 20.4787L459.861 19.179Z" fill="#E06A52" fill-opacity="0.6"/>
</svg>
